<?xml version="1.0" encoding="utf-8"?>
<!-- Generator: Adobe Illustrator 24.1.3, SVG Export Plug-In . SVG Version: 6.00 Build 0)  -->
<svg version="1.1" id="Layer_1" xmlns="http://www.w3.org/2000/svg" xmlns:xlink="http://www.w3.org/1999/xlink" x="0px" y="0px"
	 viewBox="0 0 1080 1080" style="enable-background:new 0 0 1080 1080;" xml:space="preserve">
<style type="text/css">
	.st0{fill:#1A1A1A;stroke:#F7931E;stroke-width:2;stroke-miterlimit:10;}
</style>
<g>
	<path class="st0" d="M52.73,423.15c0,0,38.11,264.17,214.23,278.63c0,0-88.06-26.29-126.17-181.37c0,0,66.7-11.69,126.17,18.4
		c0,0-39.76-99.75-145.89-74.91l-11.83,47.31l-7.89-11.83l7.89-36.8l0.66,0.66c-49.29-13.8-57.83-39.43-57.83-39.43"/>
	<path class="st0" d="M240.34,483.75c17.09,17.09,22.44,36.66,43.7,45.86c136.69,59.14,138.58,122.7,119.6,159.03
		c-19.75,37.79-89,41.83-176.12,19.71c162.97,102.51,307.54,18.4,307.54,18.4S448,500.83,240.34,483.75z M441.76,650.52
		c13.14,27.6,34.17,55.2,34.17,55.2c-23.66,0-64.4,15.77-64.4,15.77S449.64,695.21,441.76,650.52z"/>
	<path class="st0" d="M726.96,688.64c-18.98-36.33-17.09-99.89,119.6-159.03c21.26-9.2,24.97-27.6,39.43-46
		c-207.66,17.09-290.46,243.14-290.46,243.14s144.57,84.11,307.54-18.4C815.95,730.47,746.71,726.43,726.96,688.64z M654.67,705.72
		c0,0,21.03-27.6,34.17-55.2c-7.89,44.69,30.23,70.97,30.23,70.97S678.33,705.72,654.67,705.72z"/>
	<path class="st0" d="M632.33,626.87l-53.89-14.46l17.09,23.66l-26.29,42.06c0,0-61.77-77.54-47.31-89.37
		c0,0,47.31-44.69,122.23,17.09l27.6-30.23c0,0-23.66-43.37-51.26-49.94c0,0-55.2,40.74-109.09-1.31
		c-43.37,26.29-51.26,57.83-51.26,57.83c44.69,42.06,94.3,143.4,94.3,143.4s6.8,0,9.06,0c2.33,0,11.97,0,11.97,0
		S599.14,680.89,632.33,626.87z"/>
	<path class="st0" d="M983.24,438.92l-84.11,44.69c-18.4,46-67.03,69.66-67.03,69.66s61.77-6.57,76.23-11.83
		c-11.83,23.66-39.43,42.06-39.43,42.06s74.91-15.77,80.17-24.97c-26.29,102.51-89.7,148.65-89.7,148.65s100.21,11.69,168.56-224.88
		c-6.57,6.57-65.71,35.49-65.71,35.49S991.13,484.92,983.24,438.92z"/>
	<path class="st0" d="M1018.73,479.66c0,0,7.89-19.71-5.26-56.51l-23.66,13.14c7.89,40.74-7.89,64.4-7.89,64.4L1018.73,479.66z"/>
	<path class="st0" d="M714.49,478.35l2.63,15.77c23.66-22.34,48.94,0.14,89.68-5.12c-68.34,28.91-114.03,60.6-126.17,77.54
		C668.8,536.32,632,516.6,632,516.6s14.46-9.2,21.03-9.2c13.14,0,18.09,6.43,18.09,6.43C679,498.06,702.66,494.12,714.49,478.35z"/>
	<path class="st0" d="M418.08,479.66l-2.63,15.77c-23.66-22.34-48.94,0.14-89.68-5.12c68.34,28.91,114.03,64.54,126.17,81.49
		c10.51-34.17,48.63-53.89,48.63-53.89s-14.46-9.2-21.03-9.2c-13.14,0-18.09,6.43-18.09,6.43
		C453.57,499.38,429.91,495.44,418.08,479.66z"/>
	<g>
		<path class="st0" d="M532.74,421.06c13.4-25.88,6.93-49.45,7.39-53.61c1.39,0,10.17,12.48,10.17,12.48
			c15.25-11.09,14.33-44.37,16.64-59.16c11.09,66.09-33.74,100.29-33.74,100.29"/>
		<path class="st0" d="M579.41,373.46c-2.77,6.93-6.01,22.18-9.24,25.42v-0.46c4.16-19.87,5.08-44.83,3.7-68.4v-0.46
			c5.55,21.72,12.94,33.74,12.94,33.74l14.33-14.79c-6.93,43.9,4.16,60.54,9.24,73.48c-14.33-13.86-20.33-36.97-21.26-42.98
			l-5.55,10.63l-4.16-15.71"/>
		<path class="st0" d="M530.43,491.31c0,0-9.24-7.39-8.78-36.51c-17.94,26.94,5.51,65.6,4.16,63.31v0.46
			c0,0-50.37-55.92,19.87-100.29c-30.04,44.14-15.25,73.48-15.25,73.48"/>
		<path class="st0" d="M606.22,468.2c0,0,0.92-30.5-33.74-64.24c77.18,26.8,46.22,86.42,46.22,86.42c0-6.01,7.86-35.12-13.86-56.84
			C612.69,457.57,606.22,468.2,606.22,468.2z"/>
		<path class="st0" d="M568.32,377.16c-3.7,33.74-37.43,56.38-37.43,91.51c0,15.75,7.39,32.81,23.11,41.13l-0.46-0.46
			c23.11,14.79,72.1-19.87,35.59-79.95c-6.93,25.42-14.33,39.28-17.56,44.83c9.24-3.24,17.56-19.41,17.56-19.41
			c8.68,19.19-3.7,36.05-15.25,39.28c-9.87,2.76-20.41-4.1-24.96-9.71c-13.86-17.1-4.95-35.41,1.39-48.99
			c3.41-7.3,6.15-12.76,6.47-13.4C559.58,416.36,571.56,395.18,568.32,377.16z"/>
	</g>
</g>
</svg>
